<svg width="128" height="128" viewBox="0 0 128 128" fill="none" xmlns="http://www.w3.org/2000/svg">
<path d="M65.098 55.6651C75.0667 55.6651 83.1479 52.0735 83.1479 47.6429C83.1479 43.2124 75.0667 39.6207 65.098 39.6207C55.1293 39.6207 47.0481 43.2124 47.0481 47.6429C47.0481 52.0735 55.1293 55.6651 65.098 55.6651Z" stroke="#A46712" stroke-width="2"/>
<path d="M58.1506 51.6539C63.1349 60.287 70.286 65.4898 74.123 63.2745C77.9599 61.0592 77.0298 52.2649 72.0454 43.6317C67.0611 34.9986 59.91 29.7958 56.073 32.0111C52.2361 34.2264 53.1662 43.0207 58.1506 51.6539Z" stroke="#A46712" stroke-width="2"/>
<path d="M72.0454 51.6539C77.0298 43.0208 77.9599 34.2264 74.123 32.0111C70.286 29.7958 63.1349 34.9986 58.1506 43.6317C53.1662 52.2649 52.2361 61.0593 56.073 63.2745C59.91 65.4898 67.0611 60.2871 72.0454 51.6539Z" stroke="#A46712" stroke-width="2"/>
<path d="M65.098 51.1526C67.0363 51.1526 68.6077 49.5812 68.6077 47.6429C68.6077 45.7045 67.0363 44.1332 65.098 44.1332C63.1596 44.1332 61.5883 45.7045 61.5883 47.6429C61.5883 49.5812 63.1596 51.1526 65.098 51.1526Z" fill="#6D5435"/>
<path d="M43.1086 76.0197C44.8254 76.0197 46.2171 74.4291 46.2171 72.4671C46.2171 70.505 44.8254 68.9144 43.1086 68.9144C41.3917 68.9144 40 70.505 40 72.4671C40 74.4291 41.3917 76.0197 43.1086 76.0197Z" fill="#2F2318"/>
<path d="M61.6711 68.9144H52.079C50.3131 68.9144 48.8816 70.4213 48.8816 72.2801C48.8816 74.1389 50.3131 75.6457 52.079 75.6457H61.6711C63.4369 75.6457 64.8684 74.1389 64.8684 72.2801C64.8684 70.4213 63.4369 68.9144 61.6711 68.9144Z" fill="#2F2318"/>
<path d="M43.1086 88.4539C44.8254 88.4539 46.2171 86.8633 46.2171 84.9013C46.2171 82.9392 44.8254 81.3486 43.1086 81.3486C41.3917 81.3486 40 82.9392 40 84.9013C40 86.8633 41.3917 88.4539 43.1086 88.4539Z" fill="#2F2318"/>
<path d="M85.9261 81.3486H52.8033C51.1892 81.3486 49.8807 82.7444 49.8807 84.4661C49.8807 86.1878 51.1892 87.5835 52.8033 87.5835H85.9261C87.5402 87.5835 88.8487 86.1878 88.8487 84.4661C88.8487 82.7444 87.5402 81.3486 85.9261 81.3486Z" fill="#2F2318"/>
<path d="M43.1086 100C44.8254 100 46.2171 98.4095 46.2171 96.4474C46.2171 94.4853 44.8254 92.8948 43.1086 92.8948C41.3917 92.8948 40 94.4853 40 96.4474C40 98.4095 41.3917 100 43.1086 100Z" fill="#2F2318"/>
<path d="M70.4239 93.6826H51.8192C50.1968 93.6826 48.8816 95.0968 48.8816 96.8413C48.8816 98.5858 50.1968 100 51.8192 100H70.4239C72.0462 100 73.3614 98.5858 73.3614 96.8413C73.3614 95.0968 72.0462 93.6826 70.4239 93.6826Z" fill="#2F2318"/>
</svg>
